# xmcd
#
# Track frame offsets:
#	150
#	9851
#	51560
#	72358
#	92653
#	113112
#	140154
#	165545
#	213170
#	248235
#	270898
#	287476
#
# Disc length: 4411 seconds
#
# Revision: 1
# Processed by: cddbd v1.5.1PL0 Copyright (c) Steve Scherf et al.
# Submitted via: EasyCDDAExtractor 7.1.2.1
#
DISCID=a511390c
DTITLE=Deep Purple - 2000.10.01 - Concerto Hamburg - CD 1
DYEAR=2000
DGENRE=Hard Rock
TTITLE0=Introduction By Jon Lord
TTITLE1=Pictured Within
TTITLE2=Sitting In A Dream
TTITLE3=Love Is All
TTITLE4=Fever Dreams
TTITLE5=Rainbow In The Dark
TTITLE6=Wring That Neck
TTITLE7=Fools
TTITLE8=When A Blind Man Cries
TTITLE9=Ted The Mechanic
TTITLE10=Guitar String
TTITLE11=Pictures Of Home
EXTD=
EXTT0=
EXTT1=
EXTT2=
EXTT3=
EXTT4=
EXTT5=
EXTT6=
EXTT7=
EXTT8=
EXTT9=
EXTT10=
EXTT11=
PLAYORDER=
